<svg xmlns="http://www.w3.org/2000/svg" xmlns:xlink="http://www.w3.org/1999/xlink" width="1080" zoomAndPan="magnify" viewBox="0 0 810 809.999993" height="1080" preserveAspectRatio="xMidYMid meet" version="1.0"><defs><clipPath id="f55f7b2860"><path d="M 78 539 L 497 539 L 497 792.886719 L 78 792.886719 Z M 78 539 " clip-rule="nonzero"/></clipPath><clipPath id="5e43650677"><path d="M 495 636 L 731 636 L 731 792.886719 L 495 792.886719 Z M 495 636 " clip-rule="nonzero"/></clipPath><clipPath id="eb9537921a"><path d="M 79 608 L 496 608 L 496 792.886719 L 79 792.886719 Z M 79 608 " clip-rule="nonzero"/></clipPath><clipPath id="218f0e4726"><path d="M 476 682 L 496 682 L 496 792.886719 L 476 792.886719 Z M 476 682 " clip-rule="nonzero"/></clipPath></defs><path fill="#8f62b7" d="M 728.722656 635 C 733.753906 637.195312 723.199219 643.207031 723.199219 643.207031 L 494.882812 788.527344 C 494.882812 788.527344 483.113281 783.734375 483.546875 769.339844 C 527.566406 743.1875 711.652344 629.863281 711.652344 629.863281 C 711.652344 629.863281 725.265625 633.492188 728.722656 635 " fill-opacity="1" fill-rule="nonzero"/><path fill="#f2cfa8" d="M 727.855469 564.980469 C 708.472656 594.742188 709.820312 630.488281 720.636719 637.25 C 671.5 667.910156 552.511719 741.546875 497.0625 777.628906 C 485.882812 784.894531 480.5 751.9375 480.355469 738.597656 C 480.203125 724.644531 483.308594 691.375 495.683594 684.933594 C 551.136719 656.074219 680.066406 590.234375 727.855469 564.980469 " fill-opacity="1" fill-rule="nonzero"/><path fill="#dba66f" d="M 495.683594 684.933594 C 483.308594 691.375 480.203125 724.644531 480.355469 738.597656 C 480.445312 746.613281 481.625 761.535156 485.617188 770.734375 C 488.265625 776.84375 492.601562 780.527344 497.0625 777.628906 C 497.105469 777.597656 497.15625 777.566406 497.195312 777.535156 C 487.054688 754.3125 490.542969 710.304688 505.089844 702.242188 C 562.289062 670.542969 670.546875 611.523438 717.714844 585.835938 C 720.109375 578.851562 723.441406 571.761719 727.855469 564.980469 C 680.066406 590.234375 551.136719 656.074219 495.683594 684.933594 " fill-opacity="1" fill-rule="nonzero"/><g clip-path="url(#f55f7b2860)"><path fill="#5a3778" d="M 100.621094 540.207031 C 180.738281 569.96875 411.925781 656.976562 496.046875 681.589844 C 477.160156 690.75 468.574219 778.515625 495.46875 792.824219 C 406.769531 760.195312 194.46875 675.765625 96.617188 639.804688 C 68.578125 629.5 75.847656 531 100.621094 540.207031 " fill-opacity="1" fill-rule="nonzero"/></g><path fill="#482c60" d="M 494.328125 682.164062 C 540.675781 660.414062 667.636719 593.820312 723.800781 564.246094 C 734.667969 558.519531 739.824219 553.371094 723.230469 549.933594 C 650.035156 534.785156 386.175781 491.550781 386.175781 491.550781 C 386.175781 491.550781 160.707031 524.171875 96.042969 540.207031 C 157.273438 561.953125 405.0625 652.972656 494.328125 682.164062 " fill-opacity="1" fill-rule="nonzero"/><path fill="#412457" d="M 603.691406 627.015625 C 594.085938 621.550781 583.238281 617.542969 576.335938 614.917969 C 505.050781 587.820312 425.714844 583.871094 351.070312 574.363281 C 310.503906 569.195312 270.257812 565.074219 228.46875 566.308594 C 216.464844 566.664062 189.175781 560.3125 179.464844 569.875 C 179.359375 569.976562 179.253906 570.097656 179.152344 570.210938 C 240.90625 592.601562 321.835938 621.941406 390.042969 646.125 C 423.75 653.402344 457.179688 661.476562 490.992188 667.984375 C 498.023438 669.335938 505.265625 671.234375 512.625 673.332031 C 536.488281 661.585938 569.664062 644.625 603.691406 627.015625 " fill-opacity="1" fill-rule="nonzero"/><path fill="#67408a" d="M 733.945312 556.410156 C 734.160156 559.148438 734.3125 560.160156 734.3125 561.671875 C 734.3125 563.929688 729.65625 566.785156 727.074219 568.15625 C 669.644531 598.683594 494.570312 688.671875 494.570312 688.671875 L 494.445312 682.117188 C 494.445312 682.117188 668.792969 593.144531 726.089844 563.097656 C 728.492188 561.84375 732.910156 558.632812 733.945312 556.410156 " fill-opacity="1" fill-rule="nonzero"/><g clip-path="url(#5e43650677)"><path fill="#67408a" d="M 730.144531 636.1875 C 730.359375 638.921875 730.519531 639.941406 730.519531 641.445312 C 730.519531 643.703125 725.863281 647.460938 723.28125 648.832031 C 665.84375 679.359375 495.429688 792.867188 495.429688 792.867188 L 495.46875 786.328125 C 495.46875 786.328125 665 673.820312 722.296875 643.777344 C 724.691406 642.519531 729.117188 638.40625 730.144531 636.1875 " fill-opacity="1" fill-rule="nonzero"/></g><path fill="#794ba2" d="M 86.472656 548.671875 C 84.3125 552.8125 82.558594 558.121094 81.261719 564.101562 L 481.796875 710.054688 C 483.0625 704.222656 484.652344 698.90625 486.5 694.449219 L 86.472656 548.671875 " fill-opacity="1" fill-rule="nonzero"/><g clip-path="url(#eb9537921a)"><path fill="#50296c" d="M 96.617188 639.804688 C 194.464844 675.761719 406.769531 760.195312 495.46875 792.824219 C 487.300781 788.476562 482.40625 777.351562 480.082031 763.714844 L 79.914062 608.917969 C 82.214844 624.003906 87.578125 636.480469 96.617188 639.804688 " fill-opacity="1" fill-rule="nonzero"/></g><g clip-path="url(#218f0e4726)"><path fill="#67408a" d="M 494.445312 682.117188 C 471.59375 697.871094 469.683594 781.40625 495.453125 792.898438 C 495.453125 791.316406 495.53125 787.589844 495.5625 786.292969 C 477.46875 779.554688 477.65625 702.746094 494.570312 688.671875 C 494.519531 686.960938 494.484375 685.085938 494.445312 682.117188 " fill-opacity="1" fill-rule="nonzero"/></g><path fill="#502a69" d="M 179.464844 569.875 C 173.664062 575.589844 172.203125 594.050781 174.597656 612.070312 C 182.253906 669.640625 211.691406 647.003906 250.398438 635.730469 C 282.289062 626.449219 317.761719 632.09375 349.695312 637.976562 C 362.773438 640.382812 375.777344 643.054688 388.734375 645.84375 C 321.570312 622.171875 242.125 592.859375 179.707031 569.65625 C 179.628906 569.734375 179.542969 569.796875 179.464844 569.875 " fill-opacity="1" fill-rule="nonzero"/><path fill="#633581" d="M 174.777344 580.851562 C 173.824219 585.664062 173.414062 591.492188 173.515625 597.71875 L 267.890625 632.109375 C 284.074219 629.945312 300.820312 630.753906 317.273438 632.78125 L 174.777344 580.851562 " fill-opacity="1" fill-rule="nonzero"/><path fill="#2f4c88" d="M 574.261719 676.207031 C 480.335938 658.363281 262.480469 614.777344 163.972656 592.039062 C 134.136719 584.460938 136.976562 476.453125 170.128906 479.765625 C 247.800781 491.605469 507.707031 526.15625 588.6875 541.3125 C 563.410156 561.6875 557.058594 666.417969 574.261719 676.207031 " fill-opacity="1" fill-rule="nonzero"/><path fill="#5f7cb8" d="M 672.636719 582.90625 C 672.636719 582.90625 681.375 575.761719 671.09375 574.253906 C 665.699219 573.464844 648.597656 570.503906 648.597656 570.503906 L 564.914062 643.957031 C 564.914062 643.957031 566.308594 664.539062 570.871094 671.417969 C 574.824219 677.375 580.128906 673.070312 580.128906 673.070312 L 672.636719 582.90625 " fill-opacity="1" fill-rule="nonzero"/><path fill="#3a5e99" d="M 681.140625 486.871094 C 681.140625 486.871094 690.121094 478.523438 678.777344 477.398438 C 619.929688 471.550781 353.40625 443.765625 353.40625 443.765625 L 167.238281 479.796875 L 589.3125 541.433594 L 681.140625 486.871094 " fill-opacity="1" fill-rule="nonzero"/><path fill="#24438b" d="M 678.777344 477.398438 C 619.929688 471.550781 353.40625 443.765625 353.40625 443.765625 L 181.519531 477.03125 C 192.796875 480.042969 206.640625 483.742188 221.402344 487.703125 L 531.449219 532.984375 C 565.625 525.027344 615.335938 513.101562 651.800781 504.308594 L 681.140625 486.871094 C 681.140625 486.871094 690.121094 478.523438 678.777344 477.398438 " fill-opacity="1" fill-rule="nonzero"/><path fill="#f2cfa8" d="M 678.039062 488.777344 C 661.167969 505.65625 659.847656 562.5625 667.785156 578.441406 C 647.605469 597.304688 597.332031 646.269531 570.871094 669.761719 C 562.933594 653.878906 565.925781 625.386719 566.238281 610.539062 C 566.605469 592.988281 573.136719 553.441406 587.742188 543.703125 C 607.582031 530.472656 658.855469 501.023438 678.039062 488.777344 " fill-opacity="1" fill-rule="nonzero"/><path fill="#17326a" d="M 163.972656 592.039062 C 262.480469 614.777344 480.335938 658.363281 574.261719 676.207031 C 568.785156 673.089844 565.703125 660.339844 564.84375 643.753906 L 146.042969 564.554688 C 149.222656 578.832031 155.171875 589.800781 163.972656 592.039062 " fill-opacity="1" fill-rule="nonzero"/><path fill="#4779b6" d="M 151.1875 494.4375 C 148.675781 499.800781 146.769531 506.296875 145.460938 513.367188 L 568.863281 588.308594 C 570.125 581.578125 571.671875 575.113281 573.488281 569.179688 L 151.1875 494.4375 " fill-opacity="1" fill-rule="nonzero"/><path fill="#dba66f" d="M 568.625 588.199219 L 664.5625 525.101562 C 666.640625 509.941406 670.972656 495.847656 678.039062 488.777344 C 658.855469 501.023438 607.582031 530.472656 587.742188 543.703125 C 577.890625 550.273438 571.714844 570.40625 568.625 588.199219 " fill-opacity="1" fill-rule="nonzero"/><path fill="#b8c5df" d="M 575.910156 676.402344 C 575.363281 676.402344 574.804688 676.339844 574.261719 676.207031 C 571.007812 675.417969 568.359375 672.449219 566.382812 667.394531 C 557.636719 644.957031 565.601562 582.128906 574.855469 558.316406 C 577.230469 552.195312 585.808594 541.96875 591.242188 538.777344 C 614 525.414062 682.144531 484.375 683.339844 483.535156 C 684.492188 482.71875 684.445312 481.03125 684.445312 481.03125 C 684.445312 481.03125 687.269531 484.722656 683.085938 487.964844 C 682.449219 488.453125 615.851562 528.507812 593.074219 541.882812 C 588.25 544.714844 580.332031 554.164062 578.210938 559.621094 C 569.371094 582.371094 561.414062 644.71875 569.746094 666.085938 C 571.246094 669.925781 573.101562 672.214844 575.113281 672.703125 C 576.863281 673.128906 578.265625 672.046875 578.65625 671.707031 C 605.226562 648.3125 650.582031 601.035156 673.25 581.265625 C 674.410156 580.25 676.019531 578.054688 675.492188 575.964844 C 677.371094 578.644531 677.167969 582.621094 675.632812 583.972656 C 653.085938 603.882812 607.609375 651.019531 581.039062 674.414062 C 579.5625 675.710938 577.734375 676.402344 575.910156 676.402344 " fill-opacity="1" fill-rule="nonzero"/><path fill="#1a3a7c" d="M 324.898438 515.960938 C 381.269531 532.070312 408.386719 548.398438 417.503906 560.269531 C 427.570312 573.355469 443.679688 571.34375 449.71875 564.292969 C 460.730469 551.445312 492.601562 541.820312 509.113281 538.113281 C 516.019531 536.5625 524.71875 534.554688 534.578125 532.253906 C 445.816406 518.363281 302.574219 498.796875 217.628906 486.695312 C 256.285156 497.0625 302.339844 509.515625 324.898438 515.960938 " fill-opacity="1" fill-rule="nonzero"/><path fill="#2f4c88" d="M 378.066406 534.59375 C 399.632812 544.101562 411.929688 553.015625 417.503906 560.269531 C 417.917969 560.796875 418.351562 561.261719 418.777344 561.742188 L 446.933594 566.726562 C 448.003906 566.007812 448.949219 565.195312 449.71875 564.292969 C 454.019531 559.269531 461.519531 554.746094 470.027344 550.867188 L 378.066406 534.59375 " fill-opacity="1" fill-rule="nonzero"/><path fill="#219bbd" d="M 165.390625 457.496094 C 162.765625 456.757812 150.429688 448.480469 166.75 445.546875 C 219.921875 435.976562 303.972656 423.722656 303.972656 423.722656 L 665.03125 487.820312 C 665.03125 487.820312 515.847656 524.765625 463.757812 536.609375 C 455.894531 538.402344 439.265625 537.53125 431.550781 535.191406 C 364.300781 514.816406 234.53125 476.917969 165.390625 457.496094 " fill-opacity="1" fill-rule="nonzero"/><path fill="#219bbd" d="M 662.667969 490.660156 C 674.984375 486.871094 679.722656 462.230469 679.722656 439.492188 C 679.722656 427.777344 680.671875 394.015625 668.355469 394.015625 C 662.980469 394.015625 623.363281 400.644531 623.363281 400.644531 L 623.839844 499.660156 C 623.839844 499.660156 660.253906 491.402344 662.667969 490.660156 " fill-opacity="1" fill-rule="nonzero"/><path fill="#f2cfa8" d="M 446.707031 427.648438 C 458.546875 447.546875 463.28125 503.449219 447.652344 528.554688 C 492.167969 517.664062 613.410156 490.660156 656.507812 480.710938 C 674.03125 476.917969 675.460938 393.070312 659.828125 395.433594 C 617.675781 402.070312 489.804688 421.019531 446.707031 427.648438 " fill-opacity="1" fill-rule="nonzero"/><path fill="#dba66f" d="M 659.828125 395.433594 C 617.675781 402.070312 489.804688 421.019531 446.707031 427.648438 C 449.140625 431.746094 451.269531 437.371094 452.984375 443.925781 L 455.359375 444.332031 C 471.628906 441.46875 487.890625 438.601562 504.15625 435.75 C 531.597656 430.917969 563.492188 419.972656 591.34375 422.480469 C 599.652344 423.238281 605.804688 433.097656 614.554688 431.097656 C 620.128906 429.824219 622.445312 424.492188 625.796875 420.519531 C 630.410156 415.0625 633.097656 413.695312 640.164062 411.847656 C 642.140625 411.324219 667.816406 404.988281 668.277344 406.875 C 666.488281 399.496094 663.671875 394.855469 659.828125 395.433594 " fill-opacity="1" fill-rule="nonzero"/><path fill="#dba66f" d="M 447.652344 528.554688 C 395.554688 513.871094 226.007812 465.550781 171.070312 449.917969 C 181.488281 435.226562 180.546875 395.433594 170.125 381.695312 C 226.007812 391.167969 391.765625 418.648438 446.707031 427.648438 C 463.28125 437.121094 462.332031 520.503906 447.652344 528.554688 " fill-opacity="1" fill-rule="nonzero"/><path fill="#d0965a" d="M 455.457031 444.3125 C 453.449219 436.023438 450.550781 429.851562 446.707031 427.648438 C 415.453125 422.53125 348.335938 411.425781 285.988281 401.066406 C 241.6875 393.703125 199.796875 386.710938 174.871094 382.503906 C 174.050781 382.363281 173.257812 382.230469 172.476562 382.097656 C 171.675781 381.957031 170.878906 381.824219 170.125 381.695312 C 170.460938 382.140625 170.785156 382.617188 171.101562 383.113281 C 171.183594 383.242188 171.261719 383.378906 171.34375 383.507812 C 171.578125 383.894531 171.808594 384.285156 172.03125 384.695312 C 172.105469 384.835938 172.183594 384.996094 172.257812 385.136719 C 172.476562 385.5625 172.699219 385.992188 172.90625 386.445312 C 172.964844 386.570312 173.027344 386.710938 173.085938 386.84375 C 173.300781 387.328125 173.515625 387.824219 173.726562 388.339844 C 173.773438 388.445312 173.808594 388.5625 173.847656 388.667969 C 174.070312 389.230469 174.28125 389.796875 174.484375 390.378906 C 174.507812 390.457031 174.535156 390.53125 174.558594 390.609375 C 174.777344 391.246094 174.984375 391.886719 175.183594 392.546875 C 175.195312 392.59375 175.207031 392.636719 175.21875 392.675781 C 175.421875 393.378906 175.621094 394.097656 175.8125 394.828125 C 175.816406 394.84375 175.816406 394.855469 175.824219 394.867188 C 176.015625 395.628906 176.199219 396.398438 176.371094 397.1875 C 180.234375 414.789062 178.726562 439.125 171.070312 449.917969 C 183.863281 453.554688 202.863281 458.964844 225.144531 465.316406 C 230.121094 466.734375 243.867188 456.988281 247.933594 454.304688 C 255.066406 449.601562 260.734375 443.910156 266.453125 437.699219 C 294.648438 407.066406 343.882812 425.488281 378.734375 431.382812 C 404.273438 435.699219 429.820312 440.015625 455.359375 444.332031 L 455.457031 444.3125 " fill-opacity="1" fill-rule="nonzero"/><path fill="#219bbd" d="M 164.453125 378.015625 C 158.152344 376.941406 153.554688 371.914062 167.074219 371.035156 C 214.609375 367.972656 358.027344 358.671875 358.027344 358.671875 L 668.773438 391.804688 C 668.773438 391.804688 514.496094 416.652344 460.890625 424.496094 C 454.527344 425.433594 441.527344 425.496094 435.171875 424.496094 C 368.496094 414.035156 233.636719 389.777344 164.453125 378.015625 " fill-opacity="1" fill-rule="nonzero"/><path fill="#1a7993" d="M 167.074219 371.035156 C 153.554688 371.914062 158.152344 376.941406 164.453125 378.015625 C 212.9375 386.261719 293.675781 400.640625 360.601562 412.109375 L 503.53125 418.019531 C 570.460938 407.640625 668.773438 391.804688 668.773438 391.804688 L 358.027344 358.671875 C 358.027344 358.671875 214.609375 367.972656 167.074219 371.035156 " fill-opacity="1" fill-rule="nonzero"/><path fill="#52c2e0" d="M 430.578125 537.339844 C 362.464844 517.765625 172.226562 463.597656 162.257812 460.089844 C 157.445312 458.398438 157.675781 453.644531 158.570312 449.675781 C 158.570312 452.003906 160.609375 453.511719 163.628906 454.386719 C 195.199219 463.5625 369.90625 514.277344 432.070312 532.140625 C 443.695312 535.484375 451.835938 535.984375 461.113281 533.9375 C 484.621094 528.757812 604.429688 501.84375 657.074219 488.847656 C 672.261719 485.097656 675.359375 464.636719 676.742188 442.335938 C 677.925781 423.195312 677.054688 394.855469 666.460938 396.546875 C 627.847656 402.707031 513.140625 420.09375 458.398438 427.859375 C 450.46875 428.980469 445.722656 429.347656 436.417969 427.847656 C 372.886719 417.625 167.296875 383.40625 163.882812 382.726562 C 158.132812 381.570312 158.0625 376.800781 158.304688 374.183594 C 158.476562 375.960938 160.761719 376.464844 164.046875 377.015625 C 197.589844 382.65625 379.425781 413.195312 437.273438 422.507812 C 445.929688 423.898438 449.925781 423.59375 457.636719 422.5 C 512.359375 414.738281 625.769531 397.148438 664.414062 391.371094 C 683.722656 388.480469 682.75 422.71875 682.261719 441.980469 C 681.847656 458.066406 680.875 488.3125 658.3125 493.820312 C 605.546875 506.691406 485.78125 533.976562 462.28125 539.226562 C 450.863281 541.777344 438.160156 539.519531 430.578125 537.339844 " fill-opacity="1" fill-rule="nonzero"/><path fill="#2baed9" d="M 654.792969 398.390625 L 658.144531 392.3125 C 622.980469 397.613281 547.527344 409.265625 492.441406 417.429688 L 492.730469 422.890625 C 545.507812 415.144531 617.488281 404.226562 654.792969 398.390625 " fill-opacity="1" fill-rule="nonzero"/><path fill="#009dbf" d="M 163.882812 382.726562 C 166.546875 383.253906 292.597656 404.257812 377.914062 418.292969 L 378.460938 412.851562 C 301.15625 400.046875 189.59375 381.308594 164.046875 377.015625 C 160.761719 376.464844 158.476562 375.960938 158.304688 374.183594 C 158.0625 376.800781 158.132812 381.570312 163.882812 382.726562 " fill-opacity="1" fill-rule="nonzero"/><path fill="#d0965a" d="M 654.488281 432.601562 C 654.425781 432.175781 639.902344 433.90625 622.046875 436.449219 C 604.1875 438.996094 589.761719 441.398438 589.828125 441.820312 C 589.882812 442.238281 604.40625 440.515625 622.261719 437.972656 C 640.121094 435.425781 654.546875 433.015625 654.488281 432.601562 " fill-opacity="1" fill-rule="nonzero"/><path fill="#e2b78b" d="M 611.015625 439.125 C 617.183594 442.78125 614.667969 459.917969 615.03125 466.886719 C 615.570312 477.335938 619.695312 483.578125 630.835938 482.320312 C 637.621094 481.550781 646.578125 479.421875 652.074219 477.519531 C 641.5 474.972656 637.882812 461.835938 636.960938 454.40625 C 636.441406 450.242188 637.144531 444.425781 634.183594 441.171875 C 630.441406 437.050781 624.640625 439.132812 619.683594 439.246094 C 617.078125 439.300781 613.257812 438.113281 611.332031 439.421875 L 611.015625 439.125 " fill-opacity="1" fill-rule="nonzero"/><path fill="#b50000" d="M 641.742188 73.527344 C 642.816406 74.550781 644.378906 79.75 639.675781 79.40625 C 633.890625 78.980469 616.003906 77.894531 616.003906 77.894531 L 575.972656 43.335938 C 575.972656 43.335938 578.875 29.21875 580.664062 24.875 C 582.53125 20.324219 587.925781 20.890625 589.871094 22.683594 C 603.515625 35.238281 631.890625 64.148438 641.742188 73.527344 " fill-opacity="1" fill-rule="nonzero"/><path fill="#f2cfa8" d="M 631.027344 73.78125 C 623.082031 90.625 620.164062 132.207031 628.167969 146.203125 C 617.164062 140.210938 595.378906 128.296875 582.847656 121.546875 C 578.519531 119.210938 574.515625 114.539062 573.207031 104.285156 C 570.792969 85.464844 572.160156 44.957031 580.019531 27.722656 C 593.316406 39.292969 619.835938 63.386719 631.027344 73.78125 " fill-opacity="1" fill-rule="nonzero"/><path fill="#dba66f" d="M 575.851562 41.492188 L 627.671875 83.371094 C 628.648438 79.699219 629.773438 76.429688 631.027344 73.78125 C 619.835938 63.386719 593.316406 39.292969 580.019531 27.722656 C 578.34375 31.398438 576.964844 36.132812 575.851562 41.492188 " fill-opacity="1" fill-rule="nonzero"/><path fill="#8b0000" d="M 187.039062 128.21875 L 268.453125 153.808594 L 637.871094 149.675781 L 584.03125 122.085938 L 576.15625 116.835938 L 187.039062 128.21875 " fill-opacity="1" fill-rule="nonzero"/><path fill="#d80000" d="M 583.71875 19.292969 C 583.71875 19.292969 286.402344 35.15625 185.285156 40.40625 C 181.804688 40.589844 176.222656 46.425781 174.78125 49.605469 C 167.773438 65.050781 168.675781 103.554688 175.660156 119.015625 C 177.03125 122.054688 181.785156 129.6875 194.039062 129.53125 C 296.898438 128.21875 578.34375 119.894531 578.34375 119.894531 C 578.34375 119.894531 573.792969 111.285156 573.09375 107.191406 C 569.921875 88.828125 571.957031 47.507812 577.464844 29.695312 C 578.363281 26.796875 583.71875 19.292969 583.71875 19.292969 " fill-opacity="1" fill-rule="nonzero"/><path fill="#ff0000" d="M 174.042969 57.765625 C 261.742188 53.679688 481.773438 43.183594 575.3125 38.714844 C 575.953125 35.320312 576.679688 32.257812 577.464844 29.695312 C 578.363281 26.796875 583.71875 19.292969 583.71875 19.292969 C 583.71875 19.292969 286.402344 35.15625 185.285156 40.40625 C 181.804688 40.589844 176.222656 46.425781 174.78125 49.605469 C 173.703125 51.988281 172.8125 54.925781 172.101562 58.238281 C 172.78125 57.96875 173.441406 57.796875 174.042969 57.765625 " fill-opacity="1" fill-rule="nonzero"/><path fill="#bc0000" d="M 572.167969 99.558594 C 481.390625 102.558594 272.242188 109.316406 182.851562 111.007812 C 178.746094 111.082031 175.40625 110.453125 172.664062 109.46875 C 173.484375 113.15625 174.484375 116.414062 175.660156 119.015625 C 177.03125 122.054688 181.785156 129.6875 194.039062 129.535156 C 296.898438 128.21875 578.34375 119.894531 578.34375 119.894531 C 578.34375 119.894531 573.792969 111.285156 573.09375 107.191406 C 572.707031 104.960938 572.402344 102.386719 572.167969 99.558594 " fill-opacity="1" fill-rule="nonzero"/><path fill="#ff0000" d="M 638.875 151.390625 C 638.449219 151.183594 594.667969 130.101562 579.613281 121.363281 C 574.667969 118.496094 572.859375 112.265625 572.3125 109.722656 C 568.277344 90.960938 570.398438 39.832031 579.609375 22.5625 C 580.828125 20.273438 582.519531 19.523438 583.71875 19.292969 C 586.101562 18.84375 588.890625 19.980469 592.019531 22.65625 C 605.464844 34.1875 642.179688 70.734375 642.769531 71.332031 C 644.875 73.460938 643.648438 77.257812 642.230469 78.726562 C 643.074219 77.5625 642.269531 76.4375 640.398438 74.566406 C 630.722656 64.917969 600.710938 35.128906 589.539062 25.550781 C 587.429688 23.738281 585.570312 22.824219 584.425781 23.039062 C 584.214844 23.078125 583.585938 23.199219 582.96875 24.355469 C 574.261719 40.679688 572.199219 91.097656 576.035156 108.921875 C 576.953125 113.1875 579.003906 116.605469 581.527344 118.070312 C 596.460938 126.738281 639.066406 147.527344 639.496094 147.734375 L 638.875 151.390625 " fill-opacity="1" fill-rule="nonzero"/><path fill="#ed6b00" d="M 440.269531 110.308594 C 440.269531 110.308594 253.335938 132.453125 189.1875 140.863281 C 186.699219 141.1875 182.765625 143.847656 182.097656 146.269531 C 178.234375 160.347656 174.859375 191.71875 180.527344 204.664062 C 181.410156 206.683594 183.957031 212.015625 188.527344 211.929688 C 249.089844 210.707031 433.933594 208.011719 433.933594 208.011719 C 433.933594 208.011719 425.519531 198.539062 424.363281 194.746094 C 419.042969 177.351562 419.671875 136.738281 428.042969 120.472656 C 429.921875 116.824219 440.269531 110.308594 440.269531 110.308594 " fill-opacity="1" fill-rule="nonzero"/><path fill="#f67500" d="M 183.285156 155.308594 C 235.238281 149.371094 357.398438 136.578125 424.71875 129.574219 C 425.644531 126.078125 426.75 122.980469 428.042969 120.472656 C 429.921875 116.824219 440.269531 110.308594 440.269531 110.308594 C 440.269531 110.308594 253.335938 132.453125 189.1875 140.863281 C 186.699219 141.1875 182.765625 143.847656 182.097656 146.269531 C 181.328125 149.058594 180.585938 152.53125 179.921875 156.394531 C 181.09375 155.828125 182.289062 155.421875 183.285156 155.308594 " fill-opacity="1" fill-rule="nonzero"/><path fill="#b94c08" d="M 421.449219 177.238281 C 350.179688 179.597656 229.363281 183.621094 179.117188 185.496094 C 178.5625 185.515625 178.035156 185.472656 177.527344 185.386719 C 177.636719 193.074219 178.507812 200.039062 180.527344 204.664062 C 181.410156 206.683594 183.957031 212.015625 188.527344 211.929688 C 249.089844 210.707031 441.710938 208.070312 441.710938 208.070312 C 441.710938 208.070312 429.171875 205.589844 424.363281 194.746094 C 422.4375 190.410156 421.996094 184.089844 421.449219 177.238281 " fill-opacity="1" fill-rule="nonzero"/><path fill="#d15200" d="M 259.925781 135.664062 C 269.898438 133.132812 280.503906 130.636719 291.238281 128.183594 C 250.953125 133.070312 212.179688 137.851562 189.1875 140.863281 C 186.699219 141.1875 182.765625 143.847656 182.097656 146.269531 C 178.234375 160.347656 174.859375 191.71875 180.527344 204.664062 C 181.410156 206.683594 183.957031 212.015625 188.527344 211.929688 C 189.558594 211.910156 190.625 211.890625 191.71875 211.863281 C 191.894531 211.078125 192.0625 210.269531 192.214844 209.410156 C 199.832031 166.101562 218.804688 146.109375 259.925781 135.664062 " fill-opacity="1" fill-rule="nonzero"/><path fill="#dc5f00" d="M 182.097656 146.273438 C 181.917969 146.902344 181.746094 147.578125 181.574219 148.277344 C 181.550781 148.402344 181.519531 148.53125 181.488281 148.65625 C 181.316406 149.382812 181.144531 150.125 180.972656 150.910156 C 180.972656 150.925781 180.964844 150.953125 180.960938 150.972656 C 180.601562 152.664062 180.253906 154.480469 179.921875 156.394531 C 181.09375 155.828125 182.289062 155.421875 183.285156 155.308594 C 194.253906 154.046875 208.367188 152.492188 224.421875 150.742188 C 233.851562 144.15625 245.527344 139.320312 259.925781 135.664062 C 269.898438 133.132812 280.503906 130.636719 291.238281 128.183594 C 285.257812 128.90625 279.308594 129.625 273.441406 130.34375 C 273 130.402344 272.546875 130.453125 272.101562 130.507812 C 271.320312 130.605469 270.546875 130.699219 269.761719 130.796875 C 239.375 134.507812 211.425781 137.972656 192.511719 140.433594 C 192.378906 140.445312 192.238281 140.464844 192.097656 140.484375 C 191.109375 140.617188 190.128906 140.742188 189.1875 140.863281 C 187.320312 141.105469 184.636719 142.664062 183.132812 144.449219 C 182.882812 144.75 182.664062 145.046875 182.492188 145.351562 C 182.3125 145.65625 182.179688 145.960938 182.097656 146.269531 C 182.097656 146.269531 182.097656 146.273438 182.097656 146.273438 " fill-opacity="1" fill-rule="nonzero"/><path fill="#a84008" d="M 192.214844 209.410156 C 193.835938 200.1875 195.980469 192.023438 198.742188 184.785156 C 191.414062 185.046875 184.808594 185.285156 179.117188 185.496094 C 178.5625 185.515625 178.035156 185.472656 177.527344 185.386719 C 177.558594 187.28125 177.628906 189.125 177.757812 190.914062 C 177.757812 190.96875 177.761719 191.027344 177.769531 191.089844 C 177.890625 192.820312 178.066406 194.484375 178.296875 196.0625 C 178.308594 196.164062 178.328125 196.265625 178.339844 196.367188 C 178.441406 197.035156 178.558594 197.675781 178.671875 198.3125 C 178.695312 198.433594 178.722656 198.558594 178.746094 198.6875 C 178.886719 199.378906 179.039062 200.058594 179.203125 200.707031 C 179.222656 200.804688 179.253906 200.886719 179.273438 200.980469 C 179.421875 201.523438 179.578125 202.050781 179.738281 202.550781 C 179.789062 202.710938 179.839844 202.863281 179.890625 203.015625 C 180.09375 203.589844 180.296875 204.140625 180.527344 204.65625 C 180.527344 204.65625 180.527344 204.664062 180.527344 204.664062 C 180.636719 204.910156 180.773438 205.214844 180.941406 205.558594 C 181.347656 206.402344 181.917969 207.472656 182.675781 208.484375 C 183.425781 209.5 184.359375 210.464844 185.476562 211.113281 C 185.699219 211.25 185.929688 211.363281 186.171875 211.464844 C 186.648438 211.667969 187.15625 211.8125 187.695312 211.882812 C 187.960938 211.921875 188.242188 211.933594 188.527344 211.929688 C 189.558594 211.910156 190.625 211.882812 191.71875 211.863281 C 191.894531 211.078125 192.0625 210.269531 192.214844 209.410156 " fill-opacity="1" fill-rule="nonzero"/><path fill="#c74d00" d="M 678.308594 147.082031 C 674.640625 148.625 661.925781 153.609375 661.925781 153.609375 C 661.925781 153.609375 472.355469 135.046875 425.09375 128.699219 C 428.652344 116.238281 436.8125 110.363281 446.945312 111.667969 C 496.917969 118.085938 648.355469 140.539062 677.125 144.90625 C 680.25 145.378906 680.671875 146.082031 678.308594 147.082031 " fill-opacity="1" fill-rule="nonzero"/><path fill="#f2cfa8" d="M 670.058594 148.523438 C 658.875 164.027344 659.382812 205.609375 668.277344 217.5625 C 629.902344 216.542969 496.242188 209.277344 437.035156 205.464844 C 433.253906 205.222656 425.90625 200.371094 424.585938 196.824219 C 418.230469 179.789062 418.738281 135.308594 430.683594 117 C 459.90625 120.304688 624.320312 143.4375 670.058594 148.523438 " fill-opacity="1" fill-rule="nonzero"/><path fill="#dba66f" d="M 430.683594 117 C 428.199219 120.808594 426.21875 125.753906 424.679688 131.339844 L 664.585938 161.042969 C 665.933594 156.082031 667.738281 151.734375 670.058594 148.523438 C 624.320312 143.4375 459.90625 120.304688 430.683594 117 " fill-opacity="1" fill-rule="nonzero"/><path fill="#ff8f00" d="M 674.449219 220.210938 C 630.714844 217.871094 510.160156 212.214844 441.5 208.179688 C 428.207031 207.394531 425.28125 204.527344 422.132812 195.0625 C 415.863281 176.257812 419.328125 138.765625 426.492188 119.058594 C 430.367188 108.398438 440.03125 108.234375 449.902344 109.644531 C 508.75 118.050781 628.585938 134.933594 676.996094 141.785156 C 677.996094 141.933594 679.875 142.371094 679.902344 143.179688 C 679.925781 143.878906 679.820312 145.980469 679.820312 145.980469 C 679.667969 145.453125 677.917969 145.226562 676.789062 145.066406 C 645.253906 140.621094 507.25 122.390625 449.265625 114.109375 C 436.460938 112.277344 433.164062 115.449219 430.105469 120.605469 C 419.996094 137.652344 419.066406 175.628906 425.539062 193.105469 C 428.238281 200.410156 430 202.984375 441.761719 203.675781 C 510.40625 207.714844 638.023438 214.636719 674.609375 217.160156 C 675.898438 217.25 675.777344 220.28125 674.449219 220.210938 " fill-opacity="1" fill-rule="nonzero"/><path fill="#1c8521" d="M 648.839844 293.957031 C 649.390625 293.804688 652.199219 292.234375 647.554688 292.039062 C 562.710938 288.523438 266 275.171875 266 275.171875 L 138.042969 287.289062 C 138.042969 287.289062 515.410156 304.1875 617.933594 308.375 C 618.476562 305.945312 621.023438 303.25 622.796875 302.585938 C 629.183594 300.1875 641.804688 295.871094 648.839844 293.957031 " fill-opacity="1" fill-rule="nonzero"/><path fill="#1c8521" d="M 619.867188 305.726562 C 529.6875 301.058594 260.703125 291.726562 142.535156 287.0625 C 131.148438 286.609375 125.503906 293.742188 124.398438 297.429688 C 119.003906 315.433594 117.496094 354.742188 123.355469 372.597656 C 124.890625 377.246094 127.5 388.859375 144.609375 389.710938 C 269.515625 395.929688 520.542969 408.738281 615.386719 413.917969 C 609.6875 409.773438 612.089844 358.085938 612.089844 358.085938 C 612.089844 358.085938 613.125 313.5 619.867188 305.726562 " fill-opacity="1" fill-rule="nonzero"/><path fill="#22a028" d="M 647.808594 372.453125 C 647.808594 372.453125 651.464844 367.570312 646.003906 367.242188 C 642.738281 367.042969 632.925781 366.578125 632.925781 366.578125 L 612.074219 384.460938 C 612.074219 384.460938 611.523438 403.316406 613.238281 409.292969 C 614.222656 412.769531 617.8125 410.671875 618.699219 409.621094 C 627.46875 399.191406 647.808594 372.453125 647.808594 372.453125 " fill-opacity="1" fill-rule="nonzero"/><path fill="#f2cfa8" d="M 647.855469 296.480469 C 639.714844 303.996094 636.757812 357.425781 643.683594 370.222656 C 637.417969 377.785156 613.898438 403.5 613.898438 403.5 C 613.898438 403.5 611.402344 337.273438 616.535156 316.300781 C 618.699219 307.472656 622.375 304.910156 626.121094 303.511719 C 631.933594 301.34375 643.023438 298.039062 647.855469 296.480469 " fill-opacity="1" fill-rule="nonzero"/><path fill="#2ac832" d="M 123.796875 299.597656 C 122.410156 304.941406 121.316406 311.738281 120.597656 319.136719 L 612.914062 341.5 C 613.351562 335.277344 614.011719 328.203125 614.984375 321.910156 L 123.796875 299.597656 " fill-opacity="1" fill-rule="nonzero"/><path fill="#16681a" d="M 123.355469 372.597656 C 124.890625 377.246094 127.5 388.859375 144.609375 389.710938 C 269.515625 395.929688 520.542969 408.738281 615.386719 413.917969 C 612.851562 412.074219 611.921875 400.847656 611.667969 388.9375 L 121.160156 362.9375 C 121.722656 366.566406 122.453125 369.839844 123.355469 372.597656 " fill-opacity="1" fill-rule="nonzero"/><path fill="#dba66f" d="M 616.535156 316.300781 C 615.769531 319.425781 615.175781 323.554688 614.710938 328.316406 L 642.28125 312.011719 C 643.648438 304.453125 645.539062 298.617188 647.855469 296.480469 C 643.023438 298.039062 631.933594 301.34375 626.121094 303.511719 C 622.375 304.910156 618.699219 307.472656 616.535156 316.300781 " fill-opacity="1" fill-rule="nonzero"/><path fill="#3ad542" d="M 610.742188 407.542969 C 608.949219 384.269531 609.109375 331.71875 615.5625 309.972656 C 616.484375 306.84375 619.058594 303.792969 621.957031 302.382812 C 627.722656 299.570312 642.457031 295.324219 648.445312 293.550781 C 649.09375 293.359375 650.160156 293.054688 650.160156 292.726562 C 650.605469 294.054688 649.964844 296.234375 648.953125 296.652344 C 645.578125 298.046875 630.117188 303.417969 623.925781 306.4375 C 622.160156 307.300781 620.457031 309.328125 619.878906 311.253906 C 613.671875 332.195312 612.996094 385.027344 615.238281 407.257812 C 615.601562 410.824219 617.609375 408.355469 618.480469 407.371094 C 625.878906 399.019531 642.21875 378.859375 647.359375 372.308594 C 648.230469 371.195312 648.960938 369.941406 648.972656 369.085938 C 649.296875 371.421875 648.964844 374.5625 648.101562 375.746094 C 644.472656 380.734375 627.535156 401.039062 619.230469 411.382812 C 616.238281 415.109375 611.355469 415.558594 610.742188 407.542969 " fill-opacity="1" fill-rule="nonzero"/><path fill="#146118" d="M 648.839844 293.957031 C 649.390625 293.804688 652.199219 292.234375 647.554688 292.039062 C 562.710938 288.523438 266 275.171875 266 275.171875 L 148.632812 286.285156 C 150.367188 286.890625 150.9375 287.117188 152.183594 287.441406 C 218.757812 290.417969 488.433594 300.035156 601.132812 304.804688 C 610.179688 303.507812 619.136719 302.113281 625.320312 301.050781 C 632.355469 298.382812 642.96875 295.558594 648.839844 293.957031 " fill-opacity="1" fill-rule="nonzero"/><path fill="#0f7615" d="M 174.265625 292.324219 C 203.195312 294.398438 228.824219 296.519531 255.890625 298.007812 C 321.308594 301.605469 383.542969 305.636719 448.585938 312.480469 C 475.410156 315.304688 506.988281 330.117188 521.800781 338.699219 C 537.054688 347.535156 541.679688 322.710938 557.601562 315.0625 C 568.996094 309.589844 586.539062 307.625 601.132812 304.804688 C 499.871094 300.0625 266.953125 291.910156 152.183594 287.441406 C 160.738281 290.0625 170.53125 292.058594 174.265625 292.324219 " fill-opacity="1" fill-rule="nonzero"/><path fill="#249429" d="M 463.183594 315.019531 C 484.574219 320.015625 506.507812 330.171875 519.242188 337.242188 L 534.652344 337.949219 C 540.128906 333.632812 544.777344 324.953125 551.660156 319.035156 L 463.183594 315.019531 " fill-opacity="1" fill-rule="nonzero"/><path fill="#ffc100" d="M 530.050781 304.910156 C 530.050781 304.910156 262.976562 290.582031 158.824219 284.722656 C 156.007812 284.5625 150.996094 281.300781 149.355469 278.480469 C 140.261719 262.878906 143.234375 222.882812 148.445312 210.878906 C 149.292969 208.933594 151.746094 203.644531 159.339844 203.675781 C 260.6875 204.152344 531.117188 205.039062 531.117188 205.039062 C 531.117188 205.039062 524.980469 209.390625 524.050781 211.457031 C 515.519531 230.484375 519.203125 276.0625 520.589844 294.980469 C 520.835938 298.371094 530.050781 304.910156 530.050781 304.910156 " fill-opacity="1" fill-rule="nonzero"/><path fill="#ce9400" d="M 650.765625 218.417969 C 653.472656 218.679688 654.515625 222.855469 650.046875 222.9375 C 620.507812 223.496094 522.417969 221.953125 522.417969 221.953125 L 524.050781 211.457031 L 531.285156 207.667969 C 531.285156 207.667969 625.808594 216.003906 650.765625 218.417969 " fill-opacity="1" fill-rule="nonzero"/><path fill="#ffe843" d="M 650.167969 295.558594 C 653.269531 295.382812 654.832031 292.980469 651.363281 292.214844 C 646.914062 291.230469 633.445312 289.09375 633.445312 289.09375 L 520.746094 291.3125 C 520.746094 291.3125 520.589844 294.257812 521.707031 297.179688 C 523.570312 302.042969 528.914062 303.347656 531.832031 303.125 C 563.28125 300.691406 620.570312 297.261719 650.167969 295.558594 " fill-opacity="1" fill-rule="nonzero"/><path fill="#f2cfa8" d="M 646.171875 220.921875 C 637.375 228.753906 638.4375 281.511719 644.035156 292.042969 C 622.445312 293.132812 556.085938 296.101562 523.300781 298.261719 C 519.039062 290.421875 519.535156 265.464844 519.839844 254.5 C 520.144531 243.59375 521.140625 216.84375 526.742188 210.359375 C 556.054688 213.332031 622.71875 218.761719 646.171875 220.921875 " fill-opacity="1" fill-rule="nonzero"/><path fill="#dba66f" d="M 521.105469 232.714844 L 640.8125 237.46875 C 641.824219 229.519531 643.5625 223.242188 646.171875 220.921875 C 622.71875 218.761719 556.054688 213.332031 526.742188 210.359375 C 523.734375 213.835938 522.058594 223.148438 521.105469 232.714844 " fill-opacity="1" fill-rule="nonzero"/><path fill="#ffd700" d="M 148.445312 210.878906 C 147.238281 213.652344 146.160156 217.929688 145.3125 223.039062 L 519.972656 227.859375 C 520.816406 221.445312 522.121094 215.761719 524.050781 211.457031 C 524.980469 209.390625 531.117188 205.039062 531.117188 205.039062 C 531.117188 205.039062 260.6875 204.152344 159.339844 203.675781 C 151.746094 203.640625 149.292969 208.933594 148.445312 210.878906 " fill-opacity="1" fill-rule="nonzero"/><path fill="#eca400" d="M 149.355469 278.480469 C 150.996094 281.300781 156.007812 284.5625 158.824219 284.722656 C 262.976562 290.582031 530.050781 304.910156 530.050781 304.910156 C 530.050781 304.910156 520.835938 298.371094 520.589844 294.980469 C 520.21875 289.921875 519.6875 282.941406 519.265625 275.078125 L 144.46875 261.753906 C 145.363281 268.402344 146.929688 274.316406 149.355469 278.480469 " fill-opacity="1" fill-rule="nonzero"/><path fill="#ffe200" d="M 531.582031 305.011719 C 524.769531 305.011719 520.441406 300.785156 519.792969 296.640625 C 516.8125 277.46875 517.816406 232.765625 520.78125 215.761719 C 522.578125 205.417969 529.207031 204.605469 533 204.988281 C 564.3125 208.121094 642.695312 215.753906 650.070312 216.554688 C 653.597656 216.9375 654.183594 219.761719 652.949219 221.691406 C 653.917969 219.460938 649.5 219.480469 647.441406 219.296875 C 627.976562 217.546875 561.183594 211.820312 532.511719 209.53125 C 529.734375 209.308594 527.222656 209.953125 525.214844 216.554688 C 520.15625 233.210938 519.730469 277.253906 524.242188 295.929688 C 524.695312 297.765625 526.929688 300.683594 532.160156 300.429688 C 561.386719 299.0625 635.347656 295.394531 649.480469 294.664062 C 650.503906 294.613281 653.230469 294.636719 653.3125 293.835938 C 653.300781 295.695312 652.644531 298.019531 650.089844 298.167969 C 635.914062 298.988281 531.84375 305.011719 531.582031 305.011719 " fill-opacity="1" fill-rule="nonzero"/><path fill="#ff0000" d="M 654.125 471.664062 C 647.820312 473.707031 636.445312 476.179688 629.804688 477.277344 C 610.710938 474.84375 624.949219 444.042969 610.542969 438.640625 C 620.042969 437.484375 632.710938 435.476562 638.398438 434.859375 C 649.203125 433.683594 641.046875 468.78125 654.125 471.664062 " fill-opacity="1" fill-rule="nonzero"/><path fill="#ffba00" d="M 629.871094 477.75 C 619.929688 477.324219 618.964844 467.089844 618.035156 457.183594 C 617.292969 449.28125 616.472656 441.585938 611.484375 439.296875 C 609.394531 438.335938 611.375 438.546875 611.675781 438.667969 C 617.503906 440.980469 618.226562 449.085938 618.976562 457.09375 C 619.867188 466.597656 620.789062 476.414062 629.824219 476.808594 C 635.316406 476.078125 651.875 472.207031 654.125 471.664062 L 654.144531 472.167969 C 653.382812 472.371094 635.492188 477.003906 629.871094 477.75 " fill-opacity="1" fill-rule="nonzero"/></svg>