<svg xmlns="http://www.w3.org/2000/svg" xmlns:xlink="http://www.w3.org/1999/xlink" width="500" zoomAndPan="magnify" viewBox="0 0 375 374.999991" height="500" preserveAspectRatio="xMidYMid meet" version="1.0"><defs><clipPath id="2582f46403"><path d="M 85 34 L 306.652344 34 L 306.652344 357.804688 L 85 357.804688 Z M 85 34 " clip-rule="nonzero"/></clipPath><clipPath id="c26e0ed439"><path d="M 68.152344 19 L 305 19 L 305 356 L 68.152344 356 Z M 68.152344 19 " clip-rule="nonzero"/></clipPath><clipPath id="c3e68ab025"><path d="M 68.152344 17.304688 L 290 17.304688 L 290 341 L 68.152344 341 Z M 68.152344 17.304688 " clip-rule="nonzero"/></clipPath><clipPath id="cbd556f0df"><path d="M 68.152344 340 L 90 340 L 90 357.804688 L 68.152344 357.804688 Z M 68.152344 340 " clip-rule="nonzero"/></clipPath></defs><g clip-path="url(#2582f46403)"><path fill="#d35f53" d="M 294.53125 357.777344 L 85.667969 357.777344 L 85.667969 34.863281 L 294.53125 34.863281 C 295.328125 34.863281 296.117188 34.941406 296.898438 35.097656 C 297.679688 35.253906 298.4375 35.484375 299.171875 35.789062 C 299.910156 36.09375 300.609375 36.46875 301.269531 36.910156 C 301.933594 37.351562 302.542969 37.855469 303.109375 38.417969 C 303.671875 38.984375 304.171875 39.597656 304.617188 40.257812 C 305.058594 40.921875 305.429688 41.621094 305.734375 42.359375 C 306.039062 43.09375 306.269531 43.855469 306.425781 44.636719 C 306.582031 45.417969 306.660156 46.207031 306.660156 47.003906 L 306.660156 345.648438 C 306.660156 346.445312 306.582031 347.234375 306.425781 348.015625 C 306.269531 348.796875 306.039062 349.554688 305.734375 350.289062 C 305.429688 351.027344 305.054688 351.726562 304.613281 352.386719 C 304.171875 353.050781 303.667969 353.664062 303.105469 354.226562 C 302.542969 354.789062 301.929688 355.292969 301.265625 355.734375 C 300.605469 356.175781 299.90625 356.550781 299.171875 356.855469 C 298.4375 357.160156 297.679688 357.390625 296.898438 357.546875 C 296.117188 357.699219 295.328125 357.777344 294.53125 357.777344 Z M 294.53125 357.777344 " fill-opacity="1" fill-rule="nonzero"/></g><g clip-path="url(#c26e0ed439)"><path fill="#f2f2f2" d="M 292.585938 355.828125 L 83.726562 355.828125 L 68.152344 340.234375 L 83.726562 32.921875 L 284.214844 19.703125 C 287.5 19.703125 298.847656 34.226562 301.035156 36.351562 C 302.210938 37.492188 303.121094 38.820312 303.757812 40.332031 C 304.398438 41.84375 304.714844 43.417969 304.714844 45.0625 L 304.714844 343.691406 C 304.714844 344.488281 304.636719 345.277344 304.480469 346.058594 C 304.324219 346.839844 304.09375 347.597656 303.789062 348.335938 C 303.484375 349.074219 303.109375 349.773438 302.667969 350.433594 C 302.226562 351.097656 301.722656 351.710938 301.160156 352.273438 C 300.597656 352.839844 299.984375 353.339844 299.324219 353.785156 C 298.660156 354.226562 297.960938 354.601562 297.226562 354.90625 C 296.488281 355.210938 295.730469 355.441406 294.949219 355.597656 C 294.167969 355.753906 293.382812 355.828125 292.585938 355.828125 Z M 292.585938 355.828125 " fill-opacity="1" fill-rule="nonzero"/></g><path fill="#666666" d="M 280.902344 344.328125 L 73.992188 344.328125 L 73.992188 343.9375 L 280.902344 343.9375 C 281.683594 343.9375 282.460938 343.859375 283.226562 343.707031 C 283.996094 343.550781 284.742188 343.324219 285.464844 343.023438 C 286.1875 342.722656 286.875 342.355469 287.527344 341.921875 C 288.179688 341.484375 288.78125 340.988281 289.335938 340.433594 C 289.890625 339.878906 290.382812 339.277344 290.820312 338.625 C 291.253906 337.972656 291.621094 337.285156 291.921875 336.5625 C 292.222656 335.835938 292.449219 335.089844 292.601562 334.320312 C 292.753906 333.550781 292.832031 332.777344 292.832031 331.992188 L 292.832031 33.363281 L 293.222656 33.363281 L 293.222656 331.992188 C 293.222656 332.800781 293.140625 333.601562 292.984375 334.398438 C 292.824219 335.191406 292.589844 335.960938 292.28125 336.710938 C 291.972656 337.457031 291.589844 338.167969 291.140625 338.84375 C 290.691406 339.515625 290.183594 340.136719 289.609375 340.710938 C 289.039062 341.285156 288.417969 341.792969 287.742188 342.246094 C 287.070312 342.695312 286.363281 343.074219 285.613281 343.386719 C 284.867188 343.695312 284.097656 343.929688 283.304688 344.089844 C 282.511719 344.246094 281.710938 344.328125 280.902344 344.328125 Z M 280.902344 344.328125 " fill-opacity="1" fill-rule="nonzero"/><path fill="#666666" d="M 284.796875 348.226562 L 77.886719 348.226562 L 77.886719 347.835938 L 284.796875 347.835938 C 285.578125 347.835938 286.355469 347.757812 287.121094 347.605469 C 287.890625 347.449219 288.636719 347.222656 289.359375 346.921875 C 290.082031 346.621094 290.769531 346.253906 291.421875 345.820312 C 292.074219 345.382812 292.675781 344.886719 293.230469 344.332031 C 293.785156 343.777344 294.277344 343.175781 294.714844 342.523438 C 295.148438 341.871094 295.515625 341.183594 295.816406 340.460938 C 296.117188 339.734375 296.34375 338.988281 296.496094 338.21875 C 296.648438 337.449219 296.726562 336.675781 296.726562 335.890625 L 296.726562 37.261719 L 297.121094 37.261719 L 297.121094 335.890625 C 297.121094 336.699219 297.039062 337.503906 296.882812 338.296875 C 296.722656 339.089844 296.488281 339.863281 296.179688 340.609375 C 295.867188 341.359375 295.488281 342.070312 295.039062 342.742188 C 294.589844 343.414062 294.078125 344.039062 293.507812 344.609375 C 292.933594 345.183594 292.3125 345.695312 291.640625 346.144531 C 290.96875 346.59375 290.257812 346.976562 289.511719 347.285156 C 288.761719 347.59375 287.992188 347.828125 287.199219 347.988281 C 286.40625 348.148438 285.605469 348.226562 284.796875 348.226562 Z M 284.796875 348.226562 " fill-opacity="1" fill-rule="nonzero"/><path fill="#666666" d="M 288.691406 352.125 L 81.390625 352.125 L 81.390625 351.738281 L 288.691406 351.738281 C 289.472656 351.734375 290.25 351.65625 291.015625 351.503906 C 291.785156 351.351562 292.53125 351.125 293.253906 350.824219 C 293.976562 350.523438 294.664062 350.15625 295.316406 349.71875 C 295.96875 349.28125 296.570312 348.789062 297.125 348.234375 C 297.675781 347.679688 298.171875 347.074219 298.605469 346.425781 C 299.042969 345.773438 299.410156 345.085938 299.710938 344.359375 C 300.011719 343.636719 300.238281 342.890625 300.390625 342.121094 C 300.542969 341.351562 300.621094 340.574219 300.621094 339.789062 L 300.621094 41.164062 L 301.011719 41.164062 L 301.011719 339.789062 C 301.011719 340.601562 300.929688 341.402344 300.773438 342.195312 C 300.613281 342.992188 300.378906 343.761719 300.070312 344.507812 C 299.757812 345.257812 299.378906 345.96875 298.929688 346.640625 C 298.480469 347.3125 297.96875 347.9375 297.398438 348.507812 C 296.828125 349.082031 296.203125 349.59375 295.53125 350.042969 C 294.859375 350.492188 294.148438 350.871094 293.402344 351.183594 C 292.65625 351.492188 291.886719 351.726562 291.09375 351.886719 C 290.300781 352.046875 289.5 352.125 288.691406 352.125 Z M 288.691406 352.125 " fill-opacity="1" fill-rule="nonzero"/><g clip-path="url(#c3e68ab025)"><path fill="#d35f53" d="M 277.007812 340.234375 L 68.152344 340.234375 L 68.152344 17.324219 L 277.007812 17.324219 C 277.804688 17.324219 278.59375 17.402344 279.371094 17.558594 C 280.152344 17.714844 280.910156 17.945312 281.648438 18.25 C 282.382812 18.554688 283.082031 18.929688 283.742188 19.371094 C 284.40625 19.8125 285.019531 20.316406 285.582031 20.882812 C 286.144531 21.445312 286.648438 22.058594 287.089844 22.722656 C 287.53125 23.382812 287.90625 24.082031 288.210938 24.820312 C 288.515625 25.554688 288.746094 26.316406 288.902344 27.097656 C 289.054688 27.878906 289.132812 28.667969 289.132812 29.464844 L 289.132812 328.09375 C 289.132812 328.890625 289.054688 329.679688 288.902344 330.460938 C 288.746094 331.242188 288.515625 332.003906 288.210938 332.738281 C 287.90625 333.476562 287.53125 334.175781 287.089844 334.835938 C 286.648438 335.5 286.144531 336.113281 285.582031 336.675781 C 285.019531 337.242188 284.40625 337.746094 283.746094 338.1875 C 283.082031 338.628906 282.382812 339.003906 281.648438 339.308594 C 280.914062 339.613281 280.152344 339.84375 279.371094 340 C 278.59375 340.15625 277.804688 340.234375 277.007812 340.234375 Z M 277.007812 340.234375 " fill-opacity="1" fill-rule="nonzero"/></g><g clip-path="url(#cbd556f0df)"><path fill="#d35f53" d="M 89.273438 357.777344 L 85.378906 357.777344 L 68.152344 340.234375 L 72.042969 340.234375 Z M 89.273438 357.777344 " fill-opacity="1" fill-rule="nonzero"/></g></svg>